# xmcd
#
# Track frame offsets: 
#        150
#        20763
#        34418
#        48570
#        62139
#        74963
#        87191
#        95444
#        108881
#        121038
#        127628
#        137962
#        149709
#        162490
#        174984
#        188986
#
# Disc length: 2704 seconds
#
# Revision: 1
# Processed by: cddbd v1.5.2PL0 Copyright (c) Steve Scherf et al.
# Submitted via: ExactAudioCopyFreeDBPlugin 1.0
#
DISCID=ee0a8e10
DTITLE=Various Artist - THE COUNTRY CLUB COLLECTION - COUNTRY DUETS
DYEAR=2006
DGENRE=country
TTITLE0=EMMYLOU HARRIS and GRAM PARSONS - Love Hurts
TTITLE1=CARTER AND YOUNG - A Lazy Farmer Boy
TTITLE2=JOE MC COY AND MEMPHIS MINNIE - Lets Go To Town
TTITLE3=RED SOVINE and WEBB PIERCE - Little Rosa
TTITLE4=GEORGE and LORRIE MORGAN - I´m Completely Satisfied With You
TTITLE5=LESTER FLATT AND EARL SCRUGGS - Dont Get Above Your Raisin´
TTITLE6=W.M. STEPP and W. WILLIAMS - Mud Fence
TTITLE7=DAVE and HOWARD - Serves ´Em Fine
TTITLE8=JACK BLANCHARD and MISTY MORGAN - Tennessee Birdwalk
TTITLE9=W.M. STEPP and MAE PUCKETT - The Old Hen
TTITLE10=GORDON TERRY and MAXINE BROWN - Two Of A Kind
TTITLE11=W. WALKER and G. SULLIVAN - When My Blue Moon Turns To Gold Aga
TTITLE11=in
TTITLE12=DAVE and HOWARD - My Bones Gonna Rise Again
TTITLE13=G. WADE and F. BRASWELL - Think A Little
TTITLE14=GRAYSON and WHITTER - Tom Dooley
TTITLE15=HALL and OATES - Past Times Behind
EXTD=
EXTT0=
EXTT1=
EXTT2=
EXTT3=
EXTT4=
EXTT5=
EXTT6=
EXTT7=
EXTT8=
EXTT9=
EXTT10=
EXTT11=
EXTT12=
EXTT13=
EXTT14=
EXTT15=
PLAYORDER=
